<svg width="72" height="72" viewBox="0 0 72 72" fill="none" xmlns="http://www.w3.org/2000/svg">
<g clip-path="url(#clip0_4803_3800)">
<mask id="mask0_4803_3800" style="mask-type:luminance" maskUnits="userSpaceOnUse" x="0" y="0" width="72" height="72">
<path d="M72 0H0V72H72V0Z" fill="white"/>
</mask>
<g mask="url(#mask0_4803_3800)">
<mask id="mask1_4803_3800" style="mask-type:luminance" maskUnits="userSpaceOnUse" x="-1" y="-1" width="74" height="74">
<path d="M-0.0358887 -0.0361328H72.0361V72.0359H-0.0358887V-0.0361328Z" fill="white"/>
</mask>
<g mask="url(#mask1_4803_3800)">
<path d="M13.4114 61.1456C13.4114 57.9079 16.0359 55.2833 19.2735 55.2833C22.5113 55.2833 25.1358 57.9079 25.1358 61.1456C25.1358 64.3831 22.5113 67.0078 19.2735 67.0078C16.0359 67.0078 13.4114 64.3831 13.4114 61.1456ZM50.2597 61.1456C50.2597 57.9079 52.8844 55.2833 56.122 55.2833C59.3595 55.2833 61.9843 57.9079 61.9843 61.1456C61.9843 64.3831 59.3595 67.0078 56.122 67.0078C52.8844 67.0078 50.2597 64.3831 50.2597 61.1456ZM41.3026 25.1347H41.4109C42.8921 25.1347 44.2631 25.917 45.0163 27.1924L51.7146 38.5341H35.1855V35.8221C31.2731 39.5766 25.9616 41.884 20.111 41.884C16.5282 41.884 13.1477 41.0187 10.1668 39.4855C7.12679 40.9907 5.03662 44.1243 5.03662 47.7461V55.2833C5.03662 58.18 6.37377 60.7645 8.46436 62.4532C9.11032 67.8494 13.7034 72.0325 19.2735 72.0325C24.1175 72.0325 28.2226 68.869 29.6356 64.4954H45.76C47.1729 68.869 51.278 72.0325 56.122 72.0325C61.28 72.0325 65.6 68.4457 66.7242 63.6304C69.8611 62.1612 72.0337 58.9761 72.0337 55.2833V49.6277C72.0337 45.4004 69.1565 41.7155 65.055 40.6906L57.7452 38.8638L49.3429 24.6373C47.7665 21.9681 44.9601 20.2801 41.8852 20.1221C41.8842 21.8471 41.6825 23.5254 41.3026 25.1347Z" fill="url(#paint0_linear_4803_3800)"/>
<path d="M16.6068 28.8045C16.6068 27.2598 17.8599 26.009 19.4024 26.009C20.945 26.009 22.1981 27.2598 22.1981 28.8045C22.1981 30.3495 20.945 31.6002 19.4024 31.6002C17.8599 31.6002 16.6068 30.3495 16.6068 28.8045ZM17.1294 20.8879V8.4063C17.1294 7.14539 18.1472 6.12334 19.4024 6.12334C20.6576 6.12334 21.6755 7.14539 21.6755 8.4063V20.8879C21.6755 22.1488 20.6576 23.171 19.4024 23.171C18.1472 23.171 17.1294 22.1488 17.1294 20.8879ZM19.755 0.363281C9.04215 0.363281 0.357422 9.04787 0.357422 19.7608C0.357422 30.4741 9.04215 39.1587 19.755 39.1587C30.4682 39.1587 39.1528 30.4741 39.1528 19.7608C39.1528 9.04787 30.4682 0.363281 19.755 0.363281Z" fill="url(#paint1_linear_4803_3800)"/>
</g>
</g>
</g>
<defs>
<linearGradient id="paint0_linear_4803_3800" x1="38.6715" y1="20.0581" x2="38.6344" y2="72.1522" gradientUnits="userSpaceOnUse">
<stop stop-color="#F57D37"/>
<stop offset="0.5" stop-color="#EC6725"/>
<stop offset="1" stop-color="#E25113"/>
</linearGradient>
<linearGradient id="paint1_linear_4803_3800" x1="19.7889" y1="0.31508" x2="19.8063" y2="38.9584" gradientUnits="userSpaceOnUse">
<stop stop-color="#F57D37"/>
<stop offset="0.5" stop-color="#EC6725"/>
<stop offset="1" stop-color="#E25113"/>
</linearGradient>
<clipPath id="clip0_4803_3800">
<rect width="72" height="72" fill="white"/>
</clipPath>
</defs>
</svg>
