<svg width="72" height="72" viewBox="0 0 72 72" fill="none" xmlns="http://www.w3.org/2000/svg">
<g clip-path="url(#clip0_4803_3920)">
<mask id="mask0_4803_3920" style="mask-type:luminance" maskUnits="userSpaceOnUse" x="0" y="0" width="72" height="72">
<path d="M72 0H0V72H72V0Z" fill="white"/>
</mask>
<g mask="url(#mask0_4803_3920)">
<mask id="mask1_4803_3920" style="mask-type:luminance" maskUnits="userSpaceOnUse" x="-1" y="-1" width="74" height="74">
<path d="M-0.0358887 -0.0361328H72.0361V72.0359H-0.0358887V-0.0361328Z" fill="white"/>
</mask>
<g mask="url(#mask1_4803_3920)">
<path d="M28.6585 63.9458C28.6585 61.5517 30.5991 59.6109 32.9931 59.6109C35.3873 59.6109 37.3279 61.5517 37.3279 63.9458C37.3279 66.3398 35.3873 68.2805 32.9931 68.2805C30.5991 68.2805 28.6585 66.3398 28.6585 63.9458ZM55.9056 63.9458C55.9056 61.5517 57.8464 59.6109 60.2405 59.6109C62.6344 59.6109 64.5752 61.5517 64.5752 63.9458C64.5752 66.3398 62.6344 68.2805 60.2405 68.2805C57.8464 68.2805 55.9056 66.3398 55.9056 63.9458ZM49.2823 37.3179H49.3624C50.4577 37.3179 51.4715 37.8964 52.0284 38.8394L56.9814 47.2259H44.7591V45.2206C41.8661 47.9968 37.9386 49.703 33.6124 49.703C30.9631 49.703 28.4635 49.0632 26.2593 47.9294C24.0114 49.0424 22.4658 51.3596 22.4658 54.0376V59.6109C22.4658 61.7529 23.4546 63.664 25.0004 64.9127C25.4781 68.9028 28.8744 71.996 32.9931 71.996C36.575 71.996 39.6105 69.6568 40.6553 66.4227H52.5783C53.6231 69.6568 56.6586 71.996 60.2405 71.996C64.0544 71.996 67.2489 69.3438 68.0801 65.7831C70.3996 64.6968 72.0062 62.3415 72.0062 59.6109V55.429C72.0062 52.3031 69.8786 49.5784 66.8458 48.8205L61.4407 47.4697L55.2277 36.95C54.062 34.9764 51.9868 33.7282 49.7131 33.6113C49.7124 34.8869 49.5633 36.1279 49.2823 37.3179Z" fill="url(#paint0_linear_4803_3920)"/>
<path d="M25.1204 42.403C25.1204 40.1866 26.9183 38.3921 29.1315 38.3921C31.3447 38.3921 33.1426 40.1866 33.1426 42.403C33.1426 44.6196 31.3447 46.414 29.1315 46.414C26.9183 46.414 25.1204 44.6196 25.1204 42.403ZM25.7769 32.2745V13.8535C25.7769 11.9925 27.279 10.4842 29.1315 10.4842C30.984 10.4842 32.4862 11.9925 32.4862 13.8535V32.2745C32.4862 34.1355 30.984 35.644 29.1315 35.644C27.279 35.644 25.7769 34.1355 25.7769 32.2745ZM29.5859 4.65234C15.7773 4.65234 4.58276 15.8467 4.58276 29.6555C4.58276 43.4648 15.7773 54.6591 29.5859 54.6591C43.3952 54.6591 54.5895 43.4648 54.5895 29.6555C54.5895 15.8467 43.3952 4.65234 29.5859 4.65234Z" fill="url(#paint1_linear_4803_3920)"/>
</g>
</g>
</g>
<defs>
<linearGradient id="paint0_linear_4803_3920" x1="47.3368" y1="33.5641" x2="47.3094" y2="72.0845" gradientUnits="userSpaceOnUse">
<stop stop-color="#F57D37"/>
<stop offset="0.5" stop-color="#EC6725"/>
<stop offset="1" stop-color="#E25113"/>
</linearGradient>
<linearGradient id="paint1_linear_4803_3920" x1="29.6297" y1="4.59021" x2="29.652" y2="54.4009" gradientUnits="userSpaceOnUse">
<stop stop-color="#F57D37"/>
<stop offset="0.5" stop-color="#EC6725"/>
<stop offset="1" stop-color="#E25113"/>
</linearGradient>
<clipPath id="clip0_4803_3920">
<rect width="72" height="72" fill="white"/>
</clipPath>
</defs>
</svg>
