<svg width="72" height="72" viewBox="0 0 72 72" fill="none" xmlns="http://www.w3.org/2000/svg">
<g clip-path="url(#clip0_3633_2398)">
<mask id="mask0_3633_2398" style="mask-type:luminance" maskUnits="userSpaceOnUse" x="0" y="0" width="72" height="72">
<path d="M72 0H0V72H72V0Z" fill="white"/>
</mask>
<g mask="url(#mask0_3633_2398)">
<mask id="mask1_3633_2398" style="mask-type:luminance" maskUnits="userSpaceOnUse" x="-1" y="-1" width="74" height="74">
<path d="M-0.25 -0.25H72.25V72.25H-0.25V-0.25Z" fill="white"/>
</mask>
<g mask="url(#mask1_3633_2398)">
<path d="M38.9175 24.848L11.1772 26.9558C10.2752 27.0242 9.53329 27.6001 9.20947 28.3824L9.03945 29.1105C9.03222 29.2198 9.03257 29.3309 9.0411 29.4431L11.1486 57.1836C11.2131 58.0311 11.7256 58.7375 12.4363 59.0882L13.4562 59.3264C13.5157 59.3264 13.5757 59.3242 13.6361 59.3196L41.3765 57.212C42.6533 57.1149 43.6096 56.0013 43.5125 54.7245L41.4049 26.9842C41.3262 25.9498 40.5805 25.1257 39.6212 24.9017C39.3964 24.8493 39.1598 24.8296 38.9175 24.848Z" fill="url(#paint0_linear_3633_2398)"/>
<path d="M16.198 26.5743L11.1774 26.9557C10.8969 26.977 10.6319 27.0474 10.3901 27.1578C9.79181 27.6681 9.31863 28.334 9.03956 29.1122C9.03239 29.2207 9.03285 29.3313 9.04126 29.4431L11.149 57.1835C11.2073 57.9521 11.6342 58.6046 12.2433 58.9811L13.6789 59.3163L41.3768 57.2119C42.6536 57.1149 43.6099 56.0013 43.5129 54.7245L41.829 32.5594L16.198 26.5743Z" fill="url(#paint1_linear_3633_2398)"/>
<path d="M16.1981 26.5743L11.1774 26.9557C10.8969 26.977 10.6319 27.0474 10.3901 27.1578C9.79181 27.6681 9.31863 28.334 9.03956 29.1122C9.03239 29.2207 9.03285 29.3313 9.04126 29.4431L10.3313 46.2684L42.4421 50.1303L41.829 32.5594L16.1981 26.5743Z" fill="url(#paint2_linear_3633_2398)"/>
<path d="M28.2149 15.6261L26.3898 46.2033C26.3059 47.6107 27.3788 48.8195 28.786 48.9036L59.363 50.7285C60.7703 50.8125 61.9792 49.7398 62.0632 48.3324L63.8883 17.7554C63.9723 16.348 62.8994 15.1391 61.4921 15.0551L30.9151 13.2301C30.6864 13.2164 30.463 13.2333 30.2488 13.2772C29.1448 13.5037 28.2852 14.4477 28.2149 15.6261Z" fill="url(#paint3_linear_3633_2398)"/>
<path d="M8.4397 14.972C4.85303 15.2142 2.14172 18.3184 2.38399 21.905L4.57745 54.3776C4.81973 57.9645 7.92385 60.6756 11.5105 60.4333L63.4666 56.9238C67.0533 56.6815 69.7646 53.5776 69.5223 49.9907L67.3288 17.5182C67.0866 13.9315 63.9825 11.2202 60.3958 11.4624L8.4397 14.972Z" fill="url(#paint4_linear_3633_2398)"/>
<path d="M8.4397 14.972C4.85303 15.2142 2.14172 18.3184 2.38399 21.905L4.57745 54.3776C4.81973 57.9645 7.92385 60.6756 11.5105 60.4333L63.4666 56.9238C67.0533 56.6815 69.7646 53.5776 69.5223 49.9907L67.3288 17.5182C67.0866 13.9315 63.9825 11.2202 60.3958 11.4624L8.4397 14.972Z" fill="url(#paint5_linear_3633_2398)"/>
<path d="M8.4397 14.972C4.85303 15.2142 2.14172 18.3184 2.38399 21.905L4.57745 54.3776C4.81973 57.9645 7.92385 60.6756 11.5105 60.4333L63.4666 56.9238C67.0533 56.6815 69.7646 53.5776 69.5223 49.9907L67.3288 17.5182C67.0866 13.9315 63.9825 11.2202 60.3958 11.4624L8.4397 14.972Z" fill="url(#paint6_radial_3633_2398)"/>
<path d="M32.1358 38.0828C30.633 40.3876 23.762 38.3307 16.789 33.4886C9.81607 28.6465 5.38165 22.8528 6.88456 20.5479C8.38747 18.243 15.2584 20.2997 22.2314 25.1421C29.2042 29.9841 33.6387 35.7779 32.1358 38.0828Z" fill="#FFA0BA"/>
<path d="M6.59605 21.4718L3.09588 47.5346C2.65339 50.9655 6.42654 53.5858 9.33956 51.8702L9.78535 51.6079C13.4114 49.4727 17.9261 49.2865 21.7853 51.1131C22.6155 51.4215 23.4979 51.0065 23.7565 50.1859C24.0151 49.3655 23.5518 48.4507 22.7218 48.1421C21.0484 47.307 20.9289 45.0218 22.5087 44.0728L31.6083 38.6067L31.6006 38.6015C29.3906 39.9935 23.1317 37.8936 16.7883 33.4886C10.6153 29.202 6.43175 24.1692 6.59605 21.4718Z" fill="white"/>
<path d="M44.7446 46.2018C44.7446 45.2486 45.5173 44.4757 46.4706 44.4756L55.3251 44.4721C56.2785 44.4719 57.0515 45.2446 57.0515 46.198C57.0515 47.1514 56.2786 47.9242 55.3252 47.9242L46.471 47.928C45.5176 47.928 44.7446 47.1552 44.7446 46.2018Z" fill="white"/>
<path d="M55.9351 35.9786C55.9351 35.0252 56.7079 34.2523 57.6613 34.2523L58.3462 34.2593C59.2995 34.2593 60.0724 35.0321 60.0724 35.9855C60.0724 36.9389 59.2995 37.7117 58.3462 37.7117L57.6613 37.7048C56.7079 37.7048 55.9351 36.9319 55.9351 35.9786Z" fill="white"/>
<path d="M56.5903 25.4785C56.5903 24.5251 57.3632 23.7523 58.3166 23.7523L58.3461 23.7568C59.2995 23.7568 60.0724 24.5296 60.0724 25.483C60.0724 26.4364 59.2995 27.2092 58.3461 27.2092L58.3166 27.2047C57.3632 27.2047 56.5903 26.4319 56.5903 25.4785Z" fill="white"/>
</g>
</g>
</g>
<defs>
<linearGradient id="paint0_linear_3633_2398" x1="25.6457" y1="60.0468" x2="27.0866" y2="21.4412" gradientUnits="userSpaceOnUse">
<stop stop-color="#8C48FF"/>
<stop offset="0.5" stop-color="#4E6FEE"/>
<stop offset="1" stop-color="#1097DD"/>
</linearGradient>
<linearGradient id="paint1_linear_3633_2398" x1="23.6513" y1="43.1613" x2="20.2657" y2="62.8087" gradientUnits="userSpaceOnUse">
<stop stop-color="#47229F" stop-opacity="0"/>
<stop offset="0.25" stop-color="#28125D" stop-opacity="0.4"/>
<stop offset="0.5" stop-color="#09011B" stop-opacity="0.8"/>
<stop offset="0.75" stop-color="#28125D" stop-opacity="0.4"/>
<stop offset="1" stop-color="#47229F" stop-opacity="0"/>
</linearGradient>
<linearGradient id="paint2_linear_3633_2398" x1="10.1069" y1="30.5177" x2="18.6034" y2="32.12" gradientUnits="userSpaceOnUse">
<stop stop-color="#47229F" stop-opacity="0"/>
<stop offset="0.25" stop-color="#28125D" stop-opacity="0.405"/>
<stop offset="0.5" stop-color="#09011B" stop-opacity="0.81"/>
<stop offset="0.75" stop-color="#28125D" stop-opacity="0.405"/>
<stop offset="1" stop-color="#47229F" stop-opacity="0"/>
</linearGradient>
<linearGradient id="paint3_linear_3633_2398" x1="48.2477" y1="39.404" x2="34.2318" y2="5.77922" gradientUnits="userSpaceOnUse">
<stop stop-color="#00AEFF"/>
<stop offset="0.5" stop-color="#1181E7"/>
<stop offset="1" stop-color="#2253CE"/>
</linearGradient>
<linearGradient id="paint4_linear_3633_2398" x1="41.622" y1="39.3908" x2="68.5728" y2="57.0516" gradientUnits="userSpaceOnUse">
<stop stop-color="#F2598A"/>
<stop offset="0.5" stop-color="#F95C63"/>
<stop offset="1" stop-color="#FF5F3D"/>
</linearGradient>
<linearGradient id="paint5_linear_3633_2398" x1="76.5308" y1="64.6225" x2="47.4201" y2="43.8622" gradientUnits="userSpaceOnUse">
<stop stop-color="#FFB152"/>
<stop offset="0.5" stop-color="#FFB152" stop-opacity="0.5"/>
<stop offset="1" stop-color="#FFB152" stop-opacity="0"/>
</linearGradient>
<radialGradient id="paint6_radial_3633_2398" cx="0" cy="0" r="1" gradientUnits="userSpaceOnUse" gradientTransform="translate(-3.23536 12.5001) rotate(-3.86434) scale(30.1987 30.1987)">
<stop stop-color="#A44CE3"/>
<stop offset="0.5" stop-color="#A44CE3" stop-opacity="0.5"/>
<stop offset="1" stop-color="#A44CE3" stop-opacity="0"/>
</radialGradient>
<clipPath id="clip0_3633_2398">
<rect width="72" height="72" fill="white"/>
</clipPath>
</defs>
</svg>
